# xmcd
#
# Track frame offsets: 
#        150
#        12769
#        27895
#        39942
#        54531
#        69627
#        83018
#        99627
#        118642
#        131261
#        145583
#        159512
#        183734
#        196999
#
# Disc length: 2821 seconds
#
# Revision: 0
# Processed by: cddbd v1.5.2PL0 Copyright (c) Steve Scherf et al.
# Submitted via: ExactAudioCopyFreeDBPlugin 1.0
#
DISCID=b10b030e
DTITLE=The Blue Canyon Boys - House Full of Sorrow
DYEAR=2009
DGENRE=Bluegrass
TTITLE0=Winsborough Cotton Mill Blues
TTITLE1=Goin' Up Yonder
TTITLE2=No Reason to Go Home
TTITLE3=Hello, Who's Calling?
TTITLE4=I Want You to Want Me
TTITLE5=Daybreak in Dixie (Instrumental)
TTITLE6=Lyin', Cheatin', Cryin'
TTITLE7=Wondering What Happened to You
TTITLE8=Highway of Regret
TTITLE9=Stormy Waters
TTITLE10=New Camptown Races (Instrumental)
TTITLE11=Jesus On the Mainline (Live)
TTITLE12=Roving Gambler
TTITLE13=Better Get to Heaven
EXTD=
EXTT0=
EXTT1=
EXTT2=
EXTT3=
EXTT4=
EXTT5=
EXTT6=
EXTT7=
EXTT8=
EXTT9=
EXTT10=
EXTT11=
EXTT12=
EXTT13=
PLAYORDER=
